<?xml version="1.0" encoding="UTF-8" standalone="no"?>
<!-- Created with Inkscape (http://www.inkscape.org/) -->
<svg
   xmlns:dc="http://purl.org/dc/elements/1.1/"
   xmlns:cc="http://creativecommons.org/ns#"
   xmlns:rdf="http://www.w3.org/1999/02/22-rdf-syntax-ns#"
   xmlns:svg="http://www.w3.org/2000/svg"
   xmlns="http://www.w3.org/2000/svg"
   xmlns:sodipodi="http://sodipodi.sourceforge.net/DTD/sodipodi-0.dtd"
   xmlns:inkscape="http://www.inkscape.org/namespaces/inkscape"
   width="32px"
   height="32px"
   id="svg2383"
   sodipodi:version="0.32"
   inkscape:version="0.46"
   sodipodi:docname="matest-logo-3.svg"
   inkscape:output_extension="org.inkscape.output.svg.inkscape"
   inkscape:export-filename="/home/cgg/matest-logo128.png"
   inkscape:export-xdpi="360.17001"
   inkscape:export-ydpi="360.17001">
  <defs
     id="defs2385">
    <inkscape:perspective
       sodipodi:type="inkscape:persp3d"
       inkscape:vp_x="0 : 16 : 1"
       inkscape:vp_y="0 : 1000 : 0"
       inkscape:vp_z="32 : 16 : 1"
       inkscape:persp3d-origin="16 : 10.666667 : 1"
       id="perspective2391" />
  </defs>
  <sodipodi:namedview
     id="base"
     pagecolor="#ffffff"
     bordercolor="#666666"
     borderopacity="1.0"
     inkscape:pageopacity="0.0"
     inkscape:pageshadow="2"
     inkscape:zoom="11.197802"
     inkscape:cx="11.534346"
     inkscape:cy="15.445535"
     inkscape:current-layer="layer1"
     showgrid="true"
     inkscape:grid-bbox="true"
     inkscape:document-units="px"
     inkscape:window-width="1012"
     inkscape:window-height="741"
     inkscape:window-x="6"
     inkscape:window-y="21" />
  <metadata
     id="metadata2388">
    <rdf:RDF>
      <cc:Work
         rdf:about="">
        <dc:format>image/svg+xml</dc:format>
        <dc:type
           rdf:resource="http://purl.org/dc/dcmitype/StillImage" />
      </cc:Work>
    </rdf:RDF>
  </metadata>
  <g
     id="layer1"
     inkscape:label="Layer 1"
     inkscape:groupmode="layer">
    <path
       sodipodi:type="arc"
       style="fill:#0000ff;fill-rule:evenodd;stroke:#000000;stroke-width:1px;stroke-linecap:butt;stroke-linejoin:miter;stroke-opacity:1;fill-opacity:1"
       id="path2393"
       sodipodi:cx="6.9656529"
       sodipodi:cy="9.1383705"
       sodipodi:rx="5.7154074"
       sodipodi:ry="5.6261039"
       d="M 12.68106,9.1383705 A 5.7154074,5.6261039 0 1 1 1.2502456,9.1383705 A 5.7154074,5.6261039 0 1 1 12.68106,9.1383705 z"
       transform="matrix(0.8288854,0,0,0.833534,10.310108,8.4333986)" />
    <path
       sodipodi:type="arc"
       style="fill:#0000ff;fill-rule:evenodd;stroke:#000000;stroke-width:1px;stroke-linecap:butt;stroke-linejoin:miter;stroke-opacity:1"
       id="path2397"
       sodipodi:cx="6.9656529"
       sodipodi:cy="9.1383705"
       sodipodi:rx="5.7154074"
       sodipodi:ry="5.6261039"
       d="M 12.68106,9.1383705 A 5.7154074,5.6261039 0 1 1 1.2502456,9.1383705 A 5.7154074,5.6261039 0 1 1 12.68106,9.1383705 z"
       transform="matrix(0.8288854,0,0,0.833534,21.084396,8.3589615)" />
    <path
       sodipodi:type="arc"
       style="fill:#0000ff;fill-opacity:0.49019608;fill-rule:evenodd;stroke:#000000;stroke-width:1px;stroke-linecap:butt;stroke-linejoin:miter;stroke-opacity:1"
       id="path2399"
       sodipodi:cx="6.9656529"
       sodipodi:cy="9.1383705"
       sodipodi:rx="5.7154074"
       sodipodi:ry="5.6261039"
       d="M 12.68106,9.1383705 A 5.7154074,5.6261039 0 1 1 1.2502456,9.1383705 A 5.7154074,5.6261039 0 1 1 12.68106,9.1383705 z"
       transform="matrix(0.8288854,0,0,0.833534,10.218421,19.256752)" />
    <path
       sodipodi:type="arc"
       style="fill:#0000ff;fill-rule:evenodd;stroke:#000000;stroke-width:1px;stroke-linecap:butt;stroke-linejoin:miter;stroke-opacity:1"
       id="path2401"
       sodipodi:cx="6.9656529"
       sodipodi:cy="9.1383705"
       sodipodi:rx="5.7154074"
       sodipodi:ry="5.6261039"
       d="M 12.68106,9.1383705 A 5.7154074,5.6261039 0 1 1 1.2502456,9.1383705 A 5.7154074,5.6261039 0 1 1 12.68106,9.1383705 z"
       transform="matrix(0.8288854,0,0,0.833534,21.007991,19.241886)" />
    <path
       sodipodi:type="arc"
       style="fill:#0000ff;fill-rule:evenodd;stroke:#000000;stroke-width:1px;stroke-linecap:butt;stroke-linejoin:miter;stroke-opacity:1"
       id="path3177"
       sodipodi:cx="6.9656529"
       sodipodi:cy="9.1383705"
       sodipodi:rx="5.7154074"
       sodipodi:ry="5.6261039"
       d="M 12.68106,9.1383705 A 5.7154074,5.6261039 0 1 1 1.2502456,9.1383705 A 5.7154074,5.6261039 0 1 1 12.68106,9.1383705 z"
       transform="matrix(0.8288854,0,0,0.833534,-0.5941402,-2.4081145)" />
    <path
       sodipodi:type="arc"
       style="fill:#0000ff;fill-rule:evenodd;stroke:#000000;stroke-width:1px;stroke-linecap:butt;stroke-linejoin:miter;stroke-opacity:1;fill-opacity:1"
       id="path3179"
       sodipodi:cx="6.9656529"
       sodipodi:cy="9.1383705"
       sodipodi:rx="5.7154074"
       sodipodi:ry="5.6261039"
       d="M 12.68106,9.1383705 A 5.7154074,5.6261039 0 1 1 1.2502456,9.1383705 A 5.7154074,5.6261039 0 1 1 12.68106,9.1383705 z"
       transform="matrix(0.8288854,0,0,0.833534,10.300855,-2.4081144)" />
    <path
       sodipodi:type="arc"
       style="fill:#0000ff;fill-rule:evenodd;stroke:#000000;stroke-width:1px;stroke-linecap:butt;stroke-linejoin:miter;stroke-opacity:1"
       id="path3181"
       sodipodi:cx="6.9656529"
       sodipodi:cy="9.1383705"
       sodipodi:rx="5.7154074"
       sodipodi:ry="5.6261039"
       d="M 12.68106,9.1383705 A 5.7154074,5.6261039 0 1 1 1.2502456,9.1383705 A 5.7154074,5.6261039 0 1 1 12.68106,9.1383705 z"
       transform="matrix(0.8288854,0,0,0.833534,21.017243,-2.4081145)" />
    <path
       sodipodi:type="arc"
       style="fill:#0000ff;fill-opacity:0.09803922;fill-rule:evenodd;stroke:#000000;stroke-width:1px;stroke-linecap:butt;stroke-linejoin:miter;stroke-opacity:1"
       id="path3183"
       sodipodi:cx="6.9656529"
       sodipodi:cy="9.1383705"
       sodipodi:rx="5.7154074"
       sodipodi:ry="5.6261039"
       d="M 12.68106,9.1383705 A 5.7154074,5.6261039 0 1 1 1.2502456,9.1383705 A 5.7154074,5.6261039 0 1 1 12.68106,9.1383705 z"
       transform="matrix(0.8288854,0,0,0.833534,-0.59414,19.292572)" />
    <path
       sodipodi:type="arc"
       style="fill:#0000ff;fill-opacity:0.49019608;fill-rule:evenodd;stroke:#000000;stroke-width:1px;stroke-linecap:butt;stroke-linejoin:miter;stroke-opacity:1"
       id="path3185"
       sodipodi:cx="6.9656529"
       sodipodi:cy="9.1383705"
       sodipodi:rx="5.7154074"
       sodipodi:ry="5.6261039"
       d="M 12.68106,9.1383705 A 5.7154074,5.6261039 0 1 1 1.2502456,9.1383705 A 5.7154074,5.6261039 0 1 1 12.68106,9.1383705 z"
       transform="matrix(0.8288854,0,0,0.833534,-0.5941399,8.4868808)" />
  </g>
</svg>
