<?xml version="1.0" encoding="UTF-8" standalone="no"?>
<!-- Created with Inkscape (http://www.inkscape.org/) -->

<svg
   xmlns:dc="http://purl.org/dc/elements/1.1/"
   xmlns:cc="http://creativecommons.org/ns#"
   xmlns:rdf="http://www.w3.org/1999/02/22-rdf-syntax-ns#"
   xmlns:svg="http://www.w3.org/2000/svg"
   xmlns="http://www.w3.org/2000/svg"
   xmlns:sodipodi="http://sodipodi.sourceforge.net/DTD/sodipodi-0.dtd"
   xmlns:inkscape="http://www.inkscape.org/namespaces/inkscape"
   width="32px"
   height="32px"
   id="svg2383"
   sodipodi:version="0.32"
   inkscape:version="0.48.3.1 r9886"
   sodipodi:docname="matest.svg"
   inkscape:output_extension="org.inkscape.output.svg.inkscape"
   inkscape:export-filename="/home/cgg/matest-logo-64.png"
   inkscape:export-xdpi="183.44441"
   inkscape:export-ydpi="183.44441"
   version="1.1">
  <defs
     id="defs2385">
    <inkscape:perspective
       sodipodi:type="inkscape:persp3d"
       inkscape:vp_x="0 : 16 : 1"
       inkscape:vp_y="0 : 1000 : 0"
       inkscape:vp_z="32 : 16 : 1"
       inkscape:persp3d-origin="16 : 10.666667 : 1"
       id="perspective2391" />
  </defs>
  <sodipodi:namedview
     id="base"
     pagecolor="#ffffff"
     bordercolor="#666666"
     borderopacity="1.0"
     inkscape:pageopacity="0.0"
     inkscape:pageshadow="2"
     inkscape:zoom="44.791208"
     inkscape:cx="5.0587389"
     inkscape:cy="26.984978"
     inkscape:current-layer="layer1"
     showgrid="true"
     inkscape:grid-bbox="true"
     inkscape:document-units="px"
     inkscape:window-width="1024"
     inkscape:window-height="725"
     inkscape:window-x="0"
     inkscape:window-y="0"
     inkscape:window-maximized="1"
     inkscape:snap-bbox="false" />
  <metadata
     id="metadata2388">
    <rdf:RDF>
      <cc:Work
         rdf:about="">
        <dc:format>image/svg+xml</dc:format>
        <dc:type
           rdf:resource="http://purl.org/dc/dcmitype/StillImage" />
        <dc:title></dc:title>
      </cc:Work>
    </rdf:RDF>
  </metadata>
  <g
     id="layer1"
     inkscape:label="Layer 1"
     inkscape:groupmode="layer">
    <path
       sodipodi:type="arc"
       style="fill:#0000ff;fill-rule:evenodd;stroke:none"
       id="path3177"
       sodipodi:cx="6.9656529"
       sodipodi:cy="9.1383705"
       sodipodi:rx="5.7154074"
       sodipodi:ry="5.6261039"
       d="m 12.68106,9.1383705 a 5.7154074,5.6261039 0 1 1 -11.4308144,0 5.7154074,5.6261039 0 1 1 11.4308144,0 z"
       transform="matrix(0.8288854,0,0,0.833534,-0.73014637,-2.6230535)" />
    <path
       sodipodi:type="arc"
       style="fill:#0000ff;fill-rule:evenodd;stroke:none;stroke-width:1px;stroke-linecap:butt;stroke-linejoin:miter;stroke-opacity:1;fill-opacity:0.49019607999999998"
       id="path2393"
       sodipodi:cx="6.9656529"
       sodipodi:cy="9.1383705"
       sodipodi:rx="5.7154074"
       sodipodi:ry="5.6261039"
       d="M 12.68106,9.1383705 A 5.7154074,5.6261039 0 1 1 1.2502456,9.1383705 A 5.7154074,5.6261039 0 1 1 12.68106,9.1383705 z"
       transform="matrix(0.8288854,0,0,0.833534,10.310108,8.4333986)" />
    <path
       sodipodi:type="arc"
       style="fill:#0000ff;fill-rule:evenodd;stroke:none"
       id="path2397"
       sodipodi:cx="6.9656529"
       sodipodi:cy="9.1383705"
       sodipodi:rx="5.7154074"
       sodipodi:ry="5.6261039"
       d="m 12.68106,9.1383705 a 5.7154074,5.6261039 0 1 1 -11.4308144,0 5.7154074,5.6261039 0 1 1 11.4308144,0 z"
       transform="matrix(0.8288854,0,0,0.833534,21.188836,8.3589615)" />
    <path
       sodipodi:type="arc"
       style="fill:#0000ff;fill-opacity:0.49019608;fill-rule:evenodd;stroke:none"
       id="path2399"
       sodipodi:cx="6.9656529"
       sodipodi:cy="9.1383705"
       sodipodi:rx="5.7154074"
       sodipodi:ry="5.6261039"
       d="m 12.68106,9.1383705 a 5.7154074,5.6261039 0 1 1 -11.4308144,0 5.7154074,5.6261039 0 1 1 11.4308144,0 z"
       transform="matrix(0.8288854,0,0,0.833534,10.218421,19.392766)" />
    <path
       sodipodi:type="arc"
       style="fill:#0000ff;fill-rule:evenodd;stroke:none"
       id="path2401"
       sodipodi:cx="6.9656529"
       sodipodi:cy="9.1383705"
       sodipodi:rx="5.7154074"
       sodipodi:ry="5.6261039"
       d="m 12.68106,9.1383705 a 5.7154074,5.6261039 0 1 1 -11.4308144,0 5.7154074,5.6261039 0 1 1 11.4308144,0 z"
       transform="matrix(0.8288854,0,0,0.833534,21.175571,19.393679)" />
    <path
       sodipodi:type="arc"
       style="fill:#0000ff;fill-rule:evenodd;stroke:none"
       id="path3179"
       sodipodi:cx="6.9656529"
       sodipodi:cy="9.1383705"
       sodipodi:rx="5.7154074"
       sodipodi:ry="5.6261039"
       d="m 12.68106,9.1383705 a 5.7154074,5.6261039 0 1 1 -11.4308144,0 5.7154074,5.6261039 0 1 1 11.4308144,0 z"
       transform="matrix(0.8288854,0,0,0.833534,10.300855,-2.6230534)" />
    <path
       sodipodi:type="arc"
       style="fill:#0000ff;fill-rule:evenodd;stroke:none"
       id="path3181"
       sodipodi:cx="6.9656529"
       sodipodi:cy="9.1383705"
       sodipodi:rx="5.7154074"
       sodipodi:ry="5.6261039"
       d="m 12.68106,9.1383705 a 5.7154074,5.6261039 0 1 1 -11.4308144,0 5.7154074,5.6261039 0 1 1 11.4308144,0 z"
       transform="matrix(0.8288854,0,0,0.833534,21.184824,-2.6230545)" />
    <path
       sodipodi:type="arc"
       style="fill:#0000ff;fill-opacity:0.09803922;fill-rule:evenodd;stroke:none"
       id="path3183"
       sodipodi:cx="6.9656529"
       sodipodi:cy="9.1383705"
       sodipodi:rx="5.7154074"
       sodipodi:ry="5.6261039"
       d="m 12.68106,9.1383705 a 5.7154074,5.6261039 0 1 1 -11.4308144,0 5.7154074,5.6261039 0 1 1 11.4308144,0 z"
       transform="matrix(0.8288854,0,0,0.833534,-0.83523621,19.397005)" />
    <path
       sodipodi:type="arc"
       style="fill:#0000ff;fill-opacity:0.49019608;fill-rule:evenodd;stroke:none"
       id="path3185"
       sodipodi:cx="6.9656529"
       sodipodi:cy="9.1383705"
       sodipodi:rx="5.7154074"
       sodipodi:ry="5.6261039"
       d="m 12.68106,9.1383705 a 5.7154074,5.6261039 0 1 1 -11.4308144,0 5.7154074,5.6261039 0 1 1 11.4308144,0 z"
       transform="matrix(0.8288854,0,0,0.833534,-0.81944931,8.4868808)" />
  </g>
</svg>
