<?xml version="1.0" encoding="UTF-8" standalone="no"?>
<!-- Created with Inkscape (http://www.inkscape.org/) -->

<svg
   xmlns:osb="http://www.openswatchbook.org/uri/2009/osb"
   xmlns:dc="http://purl.org/dc/elements/1.1/"
   xmlns:cc="http://creativecommons.org/ns#"
   xmlns:rdf="http://www.w3.org/1999/02/22-rdf-syntax-ns#"
   xmlns:svg="http://www.w3.org/2000/svg"
   xmlns="http://www.w3.org/2000/svg"
   xmlns:sodipodi="http://sodipodi.sourceforge.net/DTD/sodipodi-0.dtd"
   xmlns:inkscape="http://www.inkscape.org/namespaces/inkscape"
   width="32px"
   height="32px"
   id="svg2383"
   sodipodi:version="0.32"
   inkscape:version="0.48.3.1 r9886"
   sodipodi:docname="matest-v3.svg"
   inkscape:output_extension="org.inkscape.output.svg.inkscape"
   inkscape:export-filename="/home/cgg/matest-logo16.png"
   inkscape:export-xdpi="46.332371"
   inkscape:export-ydpi="46.332371"
   version="1.1">
  <defs
     id="defs2385">
    <linearGradient
       id="linearGradient3785"
       osb:paint="solid">
      <stop
         style="stop-color:#0000ff;stop-opacity:1;"
         offset="0"
         id="stop3787" />
    </linearGradient>
    <inkscape:perspective
       sodipodi:type="inkscape:persp3d"
       inkscape:vp_x="0 : 16 : 1"
       inkscape:vp_y="0 : 1000 : 0"
       inkscape:vp_z="32 : 16 : 1"
       inkscape:persp3d-origin="16 : 10.666667 : 1"
       id="perspective2391" />
  </defs>
  <sodipodi:namedview
     id="base"
     pagecolor="#ffffff"
     bordercolor="#666666"
     borderopacity="1.0"
     inkscape:pageopacity="0.0"
     inkscape:pageshadow="2"
     inkscape:zoom="15.836083"
     inkscape:cx="16.08239"
     inkscape:cy="15.60698"
     inkscape:current-layer="layer1"
     showgrid="true"
     inkscape:grid-bbox="true"
     inkscape:document-units="px"
     inkscape:window-width="1024"
     inkscape:window-height="725"
     inkscape:window-x="0"
     inkscape:window-y="0"
     inkscape:window-maximized="1" />
  <metadata
     id="metadata2388">
    <rdf:RDF>
      <cc:Work
         rdf:about="">
        <dc:format>image/svg+xml</dc:format>
        <dc:type
           rdf:resource="http://purl.org/dc/dcmitype/StillImage" />
        <dc:title></dc:title>
      </cc:Work>
    </rdf:RDF>
  </metadata>
  <g
     id="layer1"
     inkscape:label="Layer 1"
     inkscape:groupmode="layer">
    <path
       sodipodi:type="arc"
       style="fill:#000080;fill-rule:evenodd;stroke:none;stroke-width:1px;stroke-linecap:butt;stroke-linejoin:miter;stroke-opacity:1;fill-opacity:0.49019607999999998"
       id="path2393"
       sodipodi:cx="6.9656529"
       sodipodi:cy="9.1383705"
       sodipodi:rx="5.7154074"
       sodipodi:ry="5.6261039"
       d="M 12.68106,9.1383705 A 5.7154074,5.6261039 0 1 1 1.2502456,9.1383705 A 5.7154074,5.6261039 0 1 1 12.68106,9.1383705 z"
       transform="matrix(0.8288854,0,0,0.833534,10.310108,8.4333986)" />
    <path
       sodipodi:type="arc"
       style="fill:#000080;fill-rule:evenodd;stroke:none;stroke-width:0;stroke-linecap:butt;stroke-linejoin:miter;stroke-opacity:1;stroke-miterlimit:4;stroke-dasharray:none"
       id="path2397"
       sodipodi:cx="6.9656529"
       sodipodi:cy="9.1383705"
       sodipodi:rx="5.7154074"
       sodipodi:ry="5.6261039"
       d="M 12.68106,9.1383705 A 5.7154074,5.6261039 0 1 1 1.2502456,9.1383705 A 5.7154074,5.6261039 0 1 1 12.68106,9.1383705 z"
       transform="matrix(0.8288854,0,0,0.833534,21.084396,8.3589615)" />
    <path
       sodipodi:type="arc"
       style="fill:#000080;fill-opacity:0.49019607999999998;fill-rule:evenodd;stroke:none;stroke-width:1px;stroke-linecap:butt;stroke-linejoin:miter;stroke-opacity:1"
       id="path2399"
       sodipodi:cx="6.9656529"
       sodipodi:cy="9.1383705"
       sodipodi:rx="5.7154074"
       sodipodi:ry="5.6261039"
       d="M 12.68106,9.1383705 A 5.7154074,5.6261039 0 1 1 1.2502456,9.1383705 A 5.7154074,5.6261039 0 1 1 12.68106,9.1383705 z"
       transform="matrix(0.8288854,0,0,0.833534,10.218421,19.256752)" />
    <path
       sodipodi:type="arc"
       style="fill:#000080;fill-rule:evenodd;stroke:none;stroke-width:0;stroke-linecap:butt;stroke-linejoin:miter;stroke-opacity:1;stroke-miterlimit:4;stroke-dasharray:none;fill-opacity:1"
       id="path2401"
       sodipodi:cx="6.9656529"
       sodipodi:cy="9.1383705"
       sodipodi:rx="5.7154074"
       sodipodi:ry="5.6261039"
       d="M 12.68106,9.1383705 A 5.7154074,5.6261039 0 1 1 1.2502456,9.1383705 A 5.7154074,5.6261039 0 1 1 12.68106,9.1383705 z"
       transform="matrix(0.8288854,0,0,0.833534,21.007991,19.241886)" />
    <path
       sodipodi:type="arc"
       style="fill:#000080;fill-rule:evenodd;stroke:none;stroke-width:0;stroke-linecap:butt;stroke-linejoin:miter;stroke-opacity:1;stroke-miterlimit:4;stroke-dasharray:none"
       id="path3177"
       sodipodi:cx="6.9656529"
       sodipodi:cy="9.1383705"
       sodipodi:rx="5.7154074"
       sodipodi:ry="5.6261039"
       d="M 12.68106,9.1383705 A 5.7154074,5.6261039 0 1 1 1.2502456,9.1383705 A 5.7154074,5.6261039 0 1 1 12.68106,9.1383705 z"
       transform="matrix(0.8288854,0,0,0.833534,-0.5941402,-2.4081145)" />
    <path
       sodipodi:type="arc"
       style="fill:#000080;fill-rule:evenodd;stroke:none;stroke-width:0;stroke-linecap:butt;stroke-linejoin:miter;stroke-opacity:1;stroke-miterlimit:4;stroke-dasharray:none"
       id="path3179"
       sodipodi:cx="6.9656529"
       sodipodi:cy="9.1383705"
       sodipodi:rx="5.7154074"
       sodipodi:ry="5.6261039"
       d="M 12.68106,9.1383705 A 5.7154074,5.6261039 0 1 1 1.2502456,9.1383705 A 5.7154074,5.6261039 0 1 1 12.68106,9.1383705 z"
       transform="matrix(0.8288854,0,0,0.833534,10.300855,-2.4081144)" />
    <path
       sodipodi:type="arc"
       style="fill:#000080;fill-rule:evenodd;stroke:none;stroke-width:0;stroke-linecap:butt;stroke-linejoin:miter;stroke-opacity:1;stroke-miterlimit:4;stroke-dasharray:none"
       id="path3181"
       sodipodi:cx="6.9656529"
       sodipodi:cy="9.1383705"
       sodipodi:rx="5.7154074"
       sodipodi:ry="5.6261039"
       d="M 12.68106,9.1383705 A 5.7154074,5.6261039 0 1 1 1.2502456,9.1383705 A 5.7154074,5.6261039 0 1 1 12.68106,9.1383705 z"
       transform="matrix(0.8288854,0,0,0.833534,21.017243,-2.4081145)" />
    <path
       sodipodi:type="arc"
       style="fill:#000080;fill-opacity:0.19607843;fill-rule:evenodd;stroke:none;stroke-width:1px;stroke-linecap:butt;stroke-linejoin:miter;stroke-opacity:0.09803922000000000"
       id="path3183"
       sodipodi:cx="6.9656529"
       sodipodi:cy="9.1383705"
       sodipodi:rx="5.7154074"
       sodipodi:ry="5.6261039"
       d="M 12.68106,9.1383705 A 5.7154074,5.6261039 0 1 1 1.2502456,9.1383705 A 5.7154074,5.6261039 0 1 1 12.68106,9.1383705 z"
       transform="matrix(0.8288854,0,0,0.833534,-0.59414,19.292572)" />
    <path
       sodipodi:type="arc"
       style="fill:#000080;fill-opacity:0.49019607999999998;fill-rule:evenodd;stroke:none;stroke-width:1px;stroke-linecap:butt;stroke-linejoin:miter;stroke-opacity:1"
       id="path3185"
       sodipodi:cx="6.9656529"
       sodipodi:cy="9.1383705"
       sodipodi:rx="5.7154074"
       sodipodi:ry="5.6261039"
       d="M 12.68106,9.1383705 A 5.7154074,5.6261039 0 1 1 1.2502456,9.1383705 A 5.7154074,5.6261039 0 1 1 12.68106,9.1383705 z"
       transform="matrix(0.8288854,0,0,0.833534,-0.5941399,8.4868808)" />
  </g>
</svg>
